{"title":"Candy Bottoms - Summer","uid":11107026,"size":181080199,"categoryP":"porn","categoryS":"movie_clips","magnet":"?xt=urn:btih:ec676395eacc532cef2cee6740621b9ba8fb98dd&amp;dn=Candy+Bottoms+-+Summer&amp;tr=udp%3A%2F%2Ftracker.openbittorrent.com%3A80&amp;tr=udp%3A%2F%2Fopen.demonii.com%3A1337&amp;tr=udp%3A%2F%2Ftracker.coppersurfer.tk%3A6969&amp;tr=udp%3A%2F%2Fexodus.desync.com%3A6969","seeders":0,"leechers":0,"uploader":"supertongo","files":1,"time":1411738941,"description":"Candy Bottoms - Summer's anal scene\n\n:::Media info:::\n\nGeneral\nFormat                         : MPEG-4\nFormat profile                 : Base Media\nCodec ID                       : isom\nFile size                      : 173 MiB\nDuration                       : 22mn 9s\nOverall bit rate mode          : Variable\nOverall bit rate               : 1 090 Kbps\nWriting application            : Lavf52.102.0\n\nVideo\nID                             : 1\nFormat                         : AVC\nFormat/Info                    : Advanced Video Codec\nFormat profile                 : &lt;a class=&quot;__cf_email__&quot; href=&quot;/cdn-cgi/l/email-protection&quot; data-cfemail=&quot;77351604121b1e1912373b445947&quot;&gt;[email&amp;#160;protected]&lt;/a&gt;&lt;script data-cfhash='f9e31' type=&quot;text/javascript&quot;&gt;\n/* &lt;![CDATA[ */!function(){try{var t=&quot;currentScript&quot;in document?document.currentScript:function(){for(var t=document.getElementsByTagName(&quot;script&quot;),e=t.length;e--;)if(t[e].getAttribute(&quot;data-cfhash&quot;))return t[e]}();if(t&amp;&amp;t.previousSibling){var e,r,n,i,c=t.previousSibling,a=c.getAttribute(&quot;data-cfemail&quot;);if(a){for(e=&quot;&quot;,r=parseInt(a.substr(0,2),16),n=2;a.length-n;n+=2)i=parseInt(a.substr(n,2),16)^r,e+=String.fromCharCode(i);e=document.createTextNode(e),c.parentNode.replaceChild(e,c)}t.parentNode.removeChild(t);}}catch(u){}}()/* ]]&gt; */&lt;/script&gt;\nFormat settings, CABAC         : No\nFormat settings, ReFrames      : 5 frames\nCodec ID                       : avc1\nCodec ID/Info                  : Advanced Video Coding\nDuration                       : 22mn 9s\nBit rate                       : 900 Kbps\nWidth                          : 480 pixels\nHeight                         : 360 pixels\nDisplay aspect ratio           : 4:3\nFrame rate mode                : Constant\nFrame rate                     : 29.970 fps\nColor space                    : YUV\nChroma subsampling             : 4:2:0\nBit depth                      : 8 bits\nScan type                      : Progressive\nBits/(Pixel*Frame)             : 0.174\nStream size                    : 143 MiB (83%)\n\n\nAudio\nID                             : 2\nFormat                         : AAC\nFormat/Info                    : Advanced Audio Codec\nFormat profile                 : LC\nCodec ID                       : 40\nDuration                       : 22mn 9s\nBit rate mode                  : Variable\nBit rate                       : 128 Kbps\nChannel(s)                     : 2 channels\nChannel positions              : Front: L R\nSampling rate                  : 48.0 KHz\nCompression mode               : Lossy\nStream size                    : 20.3 MiB (12%)\nTagged date                    : UTC 2013-07-01 17:47:31\n &lt;a href=&quot;\nhttp://bayimg.com/AAAEKAAgk&quot; rel=&quot;nofollow&quot; target=&quot;_NEW&quot;&gt;\nhttp://bayimg.com/AAAEKAAgk&lt;/a&gt;","torrent":{"xt":"urn:btih:ec676395eacc532cef2cee6740621b9ba8fb98dd","amp;dn":"Candy+Bottoms+-+Summer","amp;tr":["udp%3A%2F%2Ftracker.openbittorrent.com%3A80","udp%3A%2F%2Fopen.demonii.com%3A1337","udp%3A%2F%2Ftracker.coppersurfer.tk%3A6969","udp%3A%2F%2Fexodus.desync.com%3A6969"],"infoHash":"ec676395eacc532cef2cee6740621b9ba8fb98dd","infoHashBuffer":{"type":"Buffer","data":[236,103,99,149,234,204,83,44,239,44,238,103,64,98,27,155,168,251,152,221]},"announce":[],"urlList":[]}}